<svg width="200" height="200" viewBox="0 0 200 200" fill="none" xmlns="http://www.w3.org/2000/svg">
<g clip-path="url(#clip0_1315_656)">
<path d="M0 0H200V200H0V0Z" fill="#F0DB4F"/>
<path d="M183.631 152.297C182.167 143.172 176.217 135.51 158.593 128.362C152.471 125.548 145.646 123.533 143.612 118.894C142.89 116.195 142.795 114.674 143.251 113.039C144.563 107.735 150.893 106.081 155.912 107.602C159.144 108.685 162.205 111.176 164.049 115.149C172.68 109.56 172.661 109.598 178.688 105.758C176.483 102.336 175.304 100.758 173.859 99.2939C168.669 93.4954 161.597 90.5106 150.285 90.7387C148.327 90.9859 146.35 91.2518 144.391 91.4992C138.745 92.925 133.365 95.8908 130.209 99.8642C120.741 110.606 123.441 129.408 134.962 137.146C146.312 145.663 162.985 147.602 165.114 155.568C167.186 165.32 157.947 168.476 148.764 167.355C141.996 165.948 138.232 162.507 134.163 156.252C126.673 160.587 126.673 160.587 118.973 165.016C120.799 169.009 122.718 170.815 125.78 174.275C140.266 188.971 176.521 188.248 183.023 166.005C183.289 165.244 185.038 160.149 183.631 152.297V152.297ZM108.726 91.9172H90.0189C90.0189 108.077 89.943 124.123 89.943 140.282C89.943 150.567 90.4753 159.997 88.8023 162.887C86.0647 168.571 78.9734 167.868 75.7415 166.765C72.4525 165.149 70.7795 162.849 68.8404 159.598C68.308 158.666 67.9088 157.944 67.7755 157.887C62.6997 160.986 57.6425 164.103 52.5664 167.202C55.0951 172.393 58.8212 176.898 63.593 179.826C70.7223 184.103 80.304 185.415 90.3232 183.115C96.8442 181.214 102.471 177.278 105.418 171.29C109.677 163.438 108.764 153.932 108.726 143.419C108.821 126.271 108.726 109.123 108.726 91.9172Z" fill="#323330"/>
</g>
<defs>
<clipPath id="clip0_1315_656">
<rect width="200" height="200" fill="white"/>
</clipPath>
</defs>
</svg>
