<svg width="182" height="200" viewBox="0 0 182 200" fill="none" xmlns="http://www.w3.org/2000/svg">
<path d="M82.6269 2.53853C87.5645 -0.287708 93.9957 -0.300474 98.9291 2.53853C123.748 16.5626 148.575 30.5648 173.39 44.5974C178.057 47.2265 181.179 52.4208 181.132 57.7988V142.173C181.167 147.774 177.736 153.092 172.812 155.662C148.074 169.609 123.35 183.573 98.6163 197.519C93.5766 200.401 87.0163 200.179 82.134 197.061C74.7177 192.762 67.2886 188.484 59.8716 184.189C58.356 183.285 56.6475 182.566 55.5773 181.097C56.5234 179.822 58.2149 179.663 59.5893 179.106C62.6851 178.122 65.5283 176.541 68.3723 175.008C69.0915 174.516 69.9695 174.705 70.6588 175.145C77.0007 178.781 83.2865 182.523 89.6496 186.124C91.0071 186.908 92.3815 185.868 93.5418 185.221C117.817 171.501 142.122 157.833 166.393 144.109C167.292 143.676 167.789 142.722 167.716 141.736C167.733 113.903 167.721 86.0648 167.725 58.2314C167.828 57.1137 167.181 56.0861 166.17 55.6286C141.518 41.7456 116.879 27.8414 92.2319 13.9548C91.8049 13.6613 91.299 13.5037 90.7808 13.503C90.2626 13.5022 89.7562 13.6583 89.3283 13.9506C64.6808 27.8414 40.0461 41.7584 15.3986 55.6407C14.3915 56.0988 13.7156 57.1095 13.8354 58.2314C13.8397 86.0648 13.8354 113.903 13.8354 141.741C13.7927 142.221 13.8983 142.704 14.1379 143.122C14.3776 143.541 14.7398 143.877 15.1759 144.083C21.7532 147.813 28.339 151.517 34.9205 155.234C38.6283 157.229 43.1808 158.415 47.2659 156.886C50.8709 155.593 53.3978 151.914 53.3291 148.087C53.3631 120.416 53.312 92.7407 53.3546 65.074C53.2645 63.8456 54.4298 62.8307 55.6241 62.9463C58.7844 62.9251 61.9489 62.9038 65.1092 62.9549C66.4283 62.9251 67.3361 64.2478 67.173 65.4853C67.1603 93.3315 67.2071 121.178 67.1517 149.024C67.1603 156.446 64.1113 164.521 57.2468 168.152C48.79 172.533 38.3376 171.604 29.983 167.403C22.7503 163.793 15.8482 159.533 8.74395 155.665C3.80707 153.11 0.393593 147.77 0.428345 142.174V57.7988C0.376572 52.3095 3.62267 47.0208 8.43544 44.43C33.1688 30.4719 57.8978 16.5031 82.6269 2.53853Z" fill="#8CC84B"/>
<path d="M104.204 60.986C114.991 60.2916 126.54 60.5746 136.247 65.8888C143.762 69.9611 147.929 78.5079 148.061 86.8576C147.852 87.9838 146.674 88.6051 145.599 88.5278C142.469 88.5235 139.339 88.5704 136.209 88.5065C134.881 88.5576 134.11 87.3335 133.943 86.1597C133.044 82.1647 130.865 78.2079 127.105 76.281C121.332 73.3909 114.639 73.5363 108.345 73.5966C103.75 73.8406 98.809 74.2384 94.9161 76.9406C91.9274 78.9874 91.0196 83.1193 92.0863 86.447C93.092 88.8363 95.8501 89.6072 98.1069 90.3179C111.107 93.7179 124.883 93.3796 137.635 97.854C142.914 99.6782 148.079 103.224 149.886 108.752C152.249 116.16 151.213 125.016 145.942 130.963C141.668 135.858 135.442 138.521 129.233 139.968C120.973 141.81 112.4 141.857 104.012 141.039C96.1239 140.14 87.9154 138.068 81.826 132.693C76.6189 128.172 74.0757 121.127 74.3281 114.328C74.3884 113.18 75.5317 112.379 76.6317 112.473C79.7835 112.448 82.9352 112.439 86.087 112.477C87.3459 112.387 88.2792 113.475 88.3438 114.662C88.9253 118.468 90.3558 122.463 93.675 124.72C100.081 128.853 108.118 128.57 115.453 128.685C121.53 128.416 128.351 128.334 133.31 124.318C135.926 122.027 136.701 118.194 135.994 114.897C135.228 112.114 132.316 110.816 129.815 109.968C116.982 105.909 103.052 107.382 90.343 102.791C85.1835 100.968 80.1941 97.52 78.2118 92.2193C75.4459 84.7172 76.7133 75.4377 82.5367 69.6909C88.2147 63.9746 96.4111 61.7732 104.204 60.9853V60.986Z" fill="#8CC84B"/>
</svg>
